<svg width="55" height="46" viewBox="0 0 55 46" fill="none" xmlns="http://www.w3.org/2000/svg">
<g clip-path="url(#clip0_7_226)">
<path d="M27.6149 45.7147L0.287109 45.8289L27.4426 26.9951L38.523 34.5286L27.6149 45.7147Z" fill="#0D73B5" stroke="#0D73B5"/>
<path d="M27.6722 45.7146L38.523 34.4714L54.7704 45.7146H27.6722Z" fill="#0F2F82" stroke="#0F2F82"/>
<path d="M19.5772 32.417L0.229614 45.886L8.38202 32.417H19.5772Z" fill="#009DE0"/>
<path d="M27.4426 19.062V26.995L54.8278 45.6575L35.9969 14.3821L27.4426 19.062Z" fill="#009DE0"/>
<path d="M19.5772 32.417L0.229614 45.886L8.38201 32.417H19.5772Z" stroke="#009DE0"/>
<path d="M27.4426 19.062V26.995L54.8278 45.6575L35.9969 14.3821L27.4426 19.062Z" stroke="#009DE0"/>
<path d="M35.9969 14.325L27.5 19.0049V0.228271L35.9969 14.325Z" fill="#162985" stroke="#162985"/>
<path d="M19.5772 32.4739L27.4425 26.995L27.3851 0.228271L8.32458 32.4739H19.5772Z" fill="#13245C" stroke="#13245C"/>
</g>
<defs>
<clipPath id="clip0_7_226">
<rect width="55" height="46" fill="white"/>
</clipPath>
</defs>
</svg>
