<svg width="221" height="185" viewBox="0 0 221 185" fill="none" xmlns="http://www.w3.org/2000/svg">
<path d="M88.9195 74L68 37.4596L88.9195 1H130.839L152 37.4596L130.839 74H88.9195Z" fill="#C8E3F1" stroke="white"/>
<path d="M88.9195 147L68 110.46L88.9195 74H130.839L152 110.46L130.839 147H88.9195Z" fill="#C8E3F1" stroke="white"/>
<path d="M151.92 110L131 73.4596L151.92 37H193.839L215 73.4596L193.839 110H151.92Z" fill="#C8E3F1" stroke="white"/>
<path d="M151.92 184L131 147.46L151.92 111H193.839L215 147.46L193.839 184H151.92Z" fill="#C8E3F1" stroke="white"/>
<path d="M25.9195 183L5 146.46L25.9195 110H67.8391L89 146.46L67.8391 183H25.9195Z" fill="#C8E3F1" stroke="white"/>
<path d="M25.9195 110L5 73.4596L25.9195 37H67.8391L89 73.4596L67.8391 110H25.9195Z" fill="#C8E3F1" stroke="white"/>
<path d="M20.32 79C19.968 79 19.696 78.9093 19.504 78.728C19.3227 78.536 19.232 78.264 19.232 77.912V68.808C19.232 68.456 19.3227 68.1893 19.504 68.008C19.696 67.816 19.968 67.72 20.32 67.72H26.032C26.2987 67.72 26.5013 67.7893 26.64 67.928C26.7893 68.0667 26.864 68.264 26.864 68.52C26.864 68.7867 26.7893 68.9947 26.64 69.144C26.5013 69.2827 26.2987 69.352 26.032 69.352H21.2V72.456H25.68C25.9573 72.456 26.1653 72.5253 26.304 72.664C26.4427 72.8027 26.512 73.0053 26.512 73.272C26.512 73.5387 26.4427 73.7413 26.304 73.88C26.1653 74.0187 25.9573 74.088 25.68 74.088H21.2V77.368H26.032C26.2987 77.368 26.5013 77.4373 26.64 77.576C26.7893 77.7147 26.864 77.9173 26.864 78.184C26.864 78.4507 26.7893 78.6533 26.64 78.792C26.5013 78.9307 26.2987 79 26.032 79H20.32ZM30.5709 79.08C30.3362 79.08 30.1389 79.016 29.9789 78.888C29.8295 78.7493 29.7495 78.5733 29.7389 78.36C29.7389 78.1467 29.8295 77.9227 30.0109 77.688L32.6029 74.488V75.432L30.1709 72.44C29.9789 72.2053 29.8882 71.9813 29.8989 71.768C29.9095 71.5547 29.9895 71.384 30.1389 71.256C30.2989 71.1173 30.4962 71.048 30.7309 71.048C30.9762 71.048 31.1789 71.0907 31.3389 71.176C31.5095 71.2613 31.6642 71.3947 31.8029 71.576L33.7229 74.04H33.0189L34.9549 71.576C35.1042 71.3947 35.2589 71.2613 35.4189 71.176C35.5789 71.0907 35.7762 71.048 36.0109 71.048C36.2562 71.048 36.4535 71.1173 36.6029 71.256C36.7522 71.3947 36.8269 71.5707 36.8269 71.784C36.8375 71.9973 36.7469 72.2213 36.5549 72.456L34.1389 75.416V74.52L36.7309 77.688C36.9229 77.912 37.0135 78.1307 37.0029 78.344C36.9922 78.5573 36.9069 78.7333 36.7469 78.872C36.5975 79.0107 36.4002 79.08 36.1549 79.08C35.9202 79.08 35.7229 79.0373 35.5629 78.952C35.4029 78.8667 35.2482 78.7333 35.0989 78.552L33.0189 75.928H33.6909L31.6269 78.552C31.4882 78.7227 31.3389 78.856 31.1789 78.952C31.0189 79.0373 30.8162 79.08 30.5709 79.08ZM41.1933 82.008C40.8733 82.008 40.6279 81.9227 40.4573 81.752C40.2866 81.5813 40.2013 81.3307 40.2013 81V72.056C40.2013 71.7253 40.2866 71.4747 40.4573 71.304C40.6279 71.1333 40.8679 71.048 41.1773 71.048C41.4973 71.048 41.7426 71.1333 41.9133 71.304C42.0839 71.4747 42.1693 71.7253 42.1693 72.056V73.304L41.9933 72.824C42.1533 72.28 42.4786 71.8427 42.9693 71.512C43.4706 71.1813 44.0519 71.016 44.7133 71.016C45.3959 71.016 45.9933 71.1813 46.5053 71.512C47.0279 71.8427 47.4333 72.312 47.7213 72.92C48.0093 73.5173 48.1533 74.2373 48.1533 75.08C48.1533 75.912 48.0093 76.6373 47.7213 77.256C47.4333 77.864 47.0333 78.3333 46.5213 78.664C46.0093 78.9947 45.4066 79.16 44.7133 79.16C44.0626 79.16 43.4919 79 43.0013 78.68C42.5106 78.3493 42.1799 77.9227 42.0093 77.4H42.2013V81C42.2013 81.3307 42.1106 81.5813 41.9293 81.752C41.7586 81.9227 41.5133 82.008 41.1933 82.008ZM44.1533 77.64C44.5479 77.64 44.8946 77.544 45.1933 77.352C45.4919 77.16 45.7213 76.8773 45.8813 76.504C46.0519 76.12 46.1373 75.6453 46.1373 75.08C46.1373 74.2267 45.9559 73.592 45.5933 73.176C45.2306 72.7493 44.7506 72.536 44.1533 72.536C43.7586 72.536 43.4119 72.632 43.1133 72.824C42.8146 73.0053 42.5799 73.288 42.4093 73.672C42.2493 74.0453 42.1693 74.5147 42.1693 75.08C42.1693 75.9227 42.3506 76.5627 42.7133 77C43.0759 77.4267 43.5559 77.64 44.1533 77.64ZM55.091 79.16C54.2057 79.16 53.443 78.9947 52.803 78.664C52.163 78.3333 51.667 77.864 51.315 77.256C50.9737 76.648 50.803 75.928 50.803 75.096C50.803 74.2853 50.9683 73.576 51.299 72.968C51.6403 72.36 52.1043 71.8853 52.691 71.544C53.2883 71.192 53.9657 71.016 54.723 71.016C55.2777 71.016 55.7737 71.1067 56.211 71.288C56.659 71.4693 57.0377 71.7307 57.347 72.072C57.667 72.4133 57.907 72.8293 58.067 73.32C58.2377 73.8 58.323 74.344 58.323 74.952C58.323 75.144 58.2537 75.2933 58.115 75.4C57.987 75.496 57.8003 75.544 57.555 75.544H52.419V74.392H56.915L56.659 74.632C56.659 74.1413 56.5843 73.7307 56.435 73.4C56.2963 73.0693 56.0883 72.8187 55.811 72.648C55.5443 72.4667 55.2083 72.376 54.803 72.376C54.355 72.376 53.971 72.4827 53.651 72.696C53.3417 72.8987 53.1017 73.192 52.931 73.576C52.771 73.9493 52.691 74.3973 52.691 74.92V75.032C52.691 75.9067 52.8937 76.5627 53.299 77C53.715 77.4267 54.323 77.64 55.123 77.64C55.4003 77.64 55.7097 77.608 56.051 77.544C56.403 77.4693 56.7337 77.3467 57.043 77.176C57.267 77.048 57.4643 76.9947 57.635 77.016C57.8057 77.0267 57.939 77.0853 58.035 77.192C58.1417 77.2987 58.2057 77.432 58.227 77.592C58.2483 77.7413 58.2163 77.896 58.131 78.056C58.0563 78.216 57.923 78.3547 57.731 78.472C57.3577 78.7067 56.9257 78.8827 56.435 79C55.955 79.1067 55.507 79.16 55.091 79.16ZM62.3709 79.128C62.0402 79.128 61.7842 79.0427 61.6029 78.872C61.4322 78.6907 61.3469 78.4347 61.3469 78.104V72.056C61.3469 71.7253 61.4322 71.4747 61.6029 71.304C61.7735 71.1333 62.0135 71.048 62.3229 71.048C62.6322 71.048 62.8722 71.1333 63.0429 71.304C63.2135 71.4747 63.2989 71.7253 63.2989 72.056V73.064H63.1389C63.2882 72.424 63.5815 71.9387 64.0189 71.608C64.4562 71.2773 65.0375 71.08 65.7629 71.016C65.9869 70.9947 66.1629 71.0533 66.2909 71.192C66.4295 71.32 66.5095 71.5227 66.5309 71.8C66.5522 72.0667 66.4882 72.2853 66.3389 72.456C66.2002 72.616 65.9869 72.712 65.6989 72.744L65.3469 72.776C64.6962 72.84 64.2055 73.0427 63.8749 73.384C63.5442 73.7147 63.3789 74.184 63.3789 74.792V78.104C63.3789 78.4347 63.2935 78.6907 63.1229 78.872C62.9522 79.0427 62.7015 79.128 62.3709 79.128ZM73.0896 79.16C72.3963 79.16 71.815 79.0427 71.3456 78.808C70.887 78.5733 70.5456 78.232 70.3216 77.784C70.0976 77.3253 69.9856 76.76 69.9856 76.088V72.68H69.1536C68.8976 72.68 68.7003 72.616 68.5616 72.488C68.423 72.3493 68.3536 72.1627 68.3536 71.928C68.3536 71.6827 68.423 71.496 68.5616 71.368C68.7003 71.24 68.8976 71.176 69.1536 71.176H69.9856V69.72C69.9856 69.3893 70.071 69.1387 70.2416 68.968C70.423 68.7973 70.6736 68.712 70.9936 68.712C71.3136 68.712 71.559 68.7973 71.7296 68.968C71.9003 69.1387 71.9856 69.3893 71.9856 69.72V71.176H73.6816C73.9376 71.176 74.135 71.24 74.2736 71.368C74.4123 71.496 74.4816 71.6827 74.4816 71.928C74.4816 72.1627 74.4123 72.3493 74.2736 72.488C74.135 72.616 73.9376 72.68 73.6816 72.68H71.9856V75.976C71.9856 76.488 72.0976 76.872 72.3216 77.128C72.5456 77.384 72.9083 77.512 73.4096 77.512C73.591 77.512 73.751 77.496 73.8896 77.464C74.0283 77.432 74.151 77.4107 74.2576 77.4C74.3856 77.3893 74.4923 77.432 74.5776 77.528C74.663 77.6133 74.7056 77.7947 74.7056 78.072C74.7056 78.2853 74.6683 78.4773 74.5936 78.648C74.5296 78.808 74.407 78.92 74.2256 78.984C74.087 79.0267 73.9056 79.064 73.6816 79.096C73.4576 79.1387 73.2603 79.16 73.0896 79.16Z" fill="black"/>
<path d="M81.12 42.16C80.6507 42.16 80.1813 42.1227 79.712 42.048C79.2427 41.984 78.8 41.8827 78.384 41.744C77.968 41.5947 77.5947 41.4133 77.264 41.2C77.072 41.072 76.9387 40.9173 76.864 40.736C76.7893 40.5547 76.7627 40.3787 76.784 40.208C76.816 40.0267 76.8853 39.872 76.992 39.744C77.1093 39.6053 77.2533 39.52 77.424 39.488C77.5947 39.456 77.7813 39.504 77.984 39.632C78.4533 39.9093 78.9493 40.112 79.472 40.24C79.9947 40.368 80.544 40.432 81.12 40.432C81.9627 40.432 82.576 40.2933 82.96 40.016C83.344 39.728 83.536 39.36 83.536 38.912C83.536 38.5387 83.3973 38.2453 83.12 38.032C82.8533 37.8187 82.3893 37.6427 81.728 37.504L79.968 37.136C78.9547 36.9227 78.1973 36.5653 77.696 36.064C77.2053 35.552 76.96 34.88 76.96 34.048C76.96 33.5253 77.0667 33.0507 77.28 32.624C77.4933 32.1973 77.792 31.8293 78.176 31.52C78.5707 31.2107 79.0347 30.976 79.568 30.816C80.112 30.6453 80.7093 30.56 81.36 30.56C82 30.56 82.608 30.64 83.184 30.8C83.76 30.96 84.2773 31.1947 84.736 31.504C84.9067 31.6213 85.0187 31.7653 85.072 31.936C85.136 32.1067 85.152 32.2773 85.12 32.448C85.088 32.608 85.0133 32.7467 84.896 32.864C84.7787 32.9813 84.6293 33.0507 84.448 33.072C84.2773 33.0933 84.08 33.04 83.856 32.912C83.4613 32.688 83.0613 32.528 82.656 32.432C82.2507 32.336 81.8133 32.288 81.344 32.288C80.8533 32.288 80.432 32.3573 80.08 32.496C79.728 32.6347 79.456 32.832 79.264 33.088C79.0827 33.3333 78.992 33.6267 78.992 33.968C78.992 34.352 79.12 34.6613 79.376 34.896C79.632 35.12 80.0693 35.296 80.688 35.424L82.432 35.792C83.488 36.016 84.272 36.368 84.784 36.848C85.3067 37.328 85.568 37.968 85.568 38.768C85.568 39.28 85.4613 39.744 85.248 40.16C85.0453 40.576 84.7467 40.9333 84.352 41.232C83.968 41.5307 83.504 41.76 82.96 41.92C82.416 42.08 81.8027 42.16 81.12 42.16ZM91.4058 42.16C90.7551 42.16 90.2164 42.0427 89.7898 41.808C89.3631 41.5627 89.0431 41.2 88.8298 40.72C88.6271 40.24 88.5258 39.6427 88.5258 38.928V35.056C88.5258 34.7147 88.6111 34.464 88.7818 34.304C88.9524 34.1333 89.1978 34.048 89.5178 34.048C89.8378 34.048 90.0831 34.1333 90.2538 34.304C90.4351 34.464 90.5258 34.7147 90.5258 35.056V38.96C90.5258 39.5147 90.6378 39.9253 90.8618 40.192C91.0858 40.4587 91.4431 40.592 91.9338 40.592C92.4671 40.592 92.9044 40.4107 93.2458 40.048C93.5871 39.6747 93.7578 39.184 93.7578 38.576V35.056C93.7578 34.7147 93.8431 34.464 94.0138 34.304C94.1844 34.1333 94.4298 34.048 94.7498 34.048C95.0698 34.048 95.3151 34.1333 95.4858 34.304C95.6671 34.464 95.7578 34.7147 95.7578 35.056V41.104C95.7578 41.7867 95.4324 42.128 94.7818 42.128C94.4724 42.128 94.2324 42.0427 94.0618 41.872C93.8911 41.6907 93.8058 41.4347 93.8058 41.104V39.888L94.0298 40.368C93.8058 40.944 93.4644 41.3867 93.0058 41.696C92.5578 42.0053 92.0244 42.16 91.4058 42.16ZM102.895 42.16C102.074 42.16 101.359 41.9947 100.751 41.664C100.143 41.3227 99.674 40.8427 99.3434 40.224C99.0127 39.6053 98.8474 38.88 98.8474 38.048C98.8474 37.4187 98.938 36.8587 99.1194 36.368C99.3114 35.8667 99.5834 35.4453 99.9354 35.104C100.287 34.752 100.714 34.4853 101.215 34.304C101.717 34.112 102.277 34.016 102.895 34.016C103.247 34.016 103.626 34.064 104.031 34.16C104.447 34.256 104.837 34.416 105.199 34.64C105.37 34.7467 105.482 34.8747 105.535 35.024C105.589 35.1733 105.599 35.328 105.567 35.488C105.535 35.6373 105.466 35.7707 105.359 35.888C105.263 35.9947 105.141 36.064 104.991 36.096C104.842 36.1173 104.677 36.08 104.495 35.984C104.261 35.8453 104.021 35.744 103.775 35.68C103.53 35.6053 103.295 35.568 103.071 35.568C102.719 35.568 102.41 35.6267 102.143 35.744C101.877 35.8507 101.647 36.0107 101.455 36.224C101.274 36.4267 101.135 36.6827 101.039 36.992C100.943 37.3013 100.895 37.6587 100.895 38.064C100.895 38.8533 101.082 39.4773 101.455 39.936C101.839 40.384 102.378 40.608 103.071 40.608C103.295 40.608 103.525 40.576 103.759 40.512C104.005 40.448 104.25 40.3467 104.495 40.208C104.677 40.112 104.837 40.08 104.975 40.112C105.125 40.144 105.247 40.2187 105.343 40.336C105.439 40.4427 105.498 40.576 105.519 40.736C105.541 40.8853 105.519 41.0347 105.455 41.184C105.402 41.3333 105.295 41.456 105.135 41.552C104.783 41.7653 104.41 41.92 104.015 42.016C103.621 42.112 103.247 42.16 102.895 42.16ZM111.726 42.16C110.905 42.16 110.19 41.9947 109.582 41.664C108.974 41.3227 108.505 40.8427 108.174 40.224C107.843 39.6053 107.678 38.88 107.678 38.048C107.678 37.4187 107.769 36.8587 107.95 36.368C108.142 35.8667 108.414 35.4453 108.766 35.104C109.118 34.752 109.545 34.4853 110.046 34.304C110.547 34.112 111.107 34.016 111.726 34.016C112.078 34.016 112.457 34.064 112.862 34.16C113.278 34.256 113.667 34.416 114.03 34.64C114.201 34.7467 114.313 34.8747 114.366 35.024C114.419 35.1733 114.43 35.328 114.398 35.488C114.366 35.6373 114.297 35.7707 114.19 35.888C114.094 35.9947 113.971 36.064 113.822 36.096C113.673 36.1173 113.507 36.08 113.326 35.984C113.091 35.8453 112.851 35.744 112.606 35.68C112.361 35.6053 112.126 35.568 111.902 35.568C111.55 35.568 111.241 35.6267 110.974 35.744C110.707 35.8507 110.478 36.0107 110.286 36.224C110.105 36.4267 109.966 36.6827 109.87 36.992C109.774 37.3013 109.726 37.6587 109.726 38.064C109.726 38.8533 109.913 39.4773 110.286 39.936C110.67 40.384 111.209 40.608 111.902 40.608C112.126 40.608 112.355 40.576 112.59 40.512C112.835 40.448 113.081 40.3467 113.326 40.208C113.507 40.112 113.667 40.08 113.806 40.112C113.955 40.144 114.078 40.2187 114.174 40.336C114.27 40.4427 114.329 40.576 114.35 40.736C114.371 40.8853 114.35 41.0347 114.286 41.184C114.233 41.3333 114.126 41.456 113.966 41.552C113.614 41.7653 113.241 41.92 112.846 42.016C112.451 42.112 112.078 42.16 111.726 42.16ZM120.797 42.16C119.911 42.16 119.149 41.9947 118.509 41.664C117.869 41.3333 117.373 40.864 117.021 40.256C116.679 39.648 116.509 38.928 116.509 38.096C116.509 37.2853 116.674 36.576 117.005 35.968C117.346 35.36 117.81 34.8853 118.397 34.544C118.994 34.192 119.671 34.016 120.429 34.016C120.983 34.016 121.479 34.1067 121.917 34.288C122.365 34.4693 122.743 34.7307 123.053 35.072C123.373 35.4133 123.613 35.8293 123.773 36.32C123.943 36.8 124.029 37.344 124.029 37.952C124.029 38.144 123.959 38.2933 123.821 38.4C123.693 38.496 123.506 38.544 123.261 38.544H118.125V37.392H122.621L122.365 37.632C122.365 37.1413 122.29 36.7307 122.141 36.4C122.002 36.0693 121.794 35.8187 121.517 35.648C121.25 35.4667 120.914 35.376 120.509 35.376C120.061 35.376 119.677 35.4827 119.357 35.696C119.047 35.8987 118.807 36.192 118.637 36.576C118.477 36.9493 118.397 37.3973 118.397 37.92V38.032C118.397 38.9067 118.599 39.5627 119.005 40C119.421 40.4267 120.029 40.64 120.829 40.64C121.106 40.64 121.415 40.608 121.757 40.544C122.109 40.4693 122.439 40.3467 122.749 40.176C122.973 40.048 123.17 39.9947 123.341 40.016C123.511 40.0267 123.645 40.0853 123.741 40.192C123.847 40.2987 123.911 40.432 123.933 40.592C123.954 40.7413 123.922 40.896 123.837 41.056C123.762 41.216 123.629 41.3547 123.437 41.472C123.063 41.7067 122.631 41.8827 122.141 42C121.661 42.1067 121.213 42.16 120.797 42.16ZM129.917 42.16C129.458 42.16 128.973 42.112 128.461 42.016C127.949 41.92 127.49 41.7547 127.085 41.52C126.914 41.4133 126.791 41.2907 126.717 41.152C126.653 41.0027 126.626 40.8587 126.637 40.72C126.658 40.5707 126.711 40.4427 126.797 40.336C126.893 40.2293 127.01 40.16 127.149 40.128C127.298 40.096 127.458 40.1227 127.629 40.208C128.055 40.4107 128.455 40.5547 128.829 40.64C129.202 40.7147 129.57 40.752 129.933 40.752C130.445 40.752 130.823 40.6667 131.069 40.496C131.325 40.3147 131.453 40.08 131.453 39.792C131.453 39.5467 131.367 39.36 131.197 39.232C131.037 39.0933 130.791 38.992 130.461 38.928L128.861 38.624C128.199 38.496 127.693 38.256 127.341 37.904C126.999 37.5413 126.829 37.0773 126.829 36.512C126.829 36 126.967 35.5573 127.245 35.184C127.533 34.8107 127.927 34.5227 128.429 34.32C128.93 34.1173 129.506 34.016 130.157 34.016C130.626 34.016 131.063 34.0693 131.469 34.176C131.885 34.272 132.285 34.4267 132.669 34.64C132.829 34.7253 132.935 34.8373 132.989 34.976C133.053 35.1147 133.069 35.2587 133.037 35.408C133.005 35.5467 132.941 35.6747 132.845 35.792C132.749 35.8987 132.626 35.968 132.477 36C132.338 36.0213 132.178 35.9893 131.997 35.904C131.666 35.7333 131.346 35.6107 131.037 35.536C130.738 35.4613 130.45 35.424 130.173 35.424C129.65 35.424 129.261 35.5147 129.005 35.696C128.759 35.8773 128.637 36.1173 128.637 36.416C128.637 36.64 128.711 36.8267 128.861 36.976C129.01 37.1253 129.239 37.2267 129.549 37.28L131.149 37.584C131.842 37.712 132.365 37.9467 132.717 38.288C133.079 38.6293 133.261 39.088 133.261 39.664C133.261 40.4427 132.957 41.056 132.349 41.504C131.741 41.9413 130.93 42.16 129.917 42.16ZM139.169 42.16C138.71 42.16 138.225 42.112 137.713 42.016C137.201 41.92 136.742 41.7547 136.337 41.52C136.166 41.4133 136.044 41.2907 135.969 41.152C135.905 41.0027 135.878 40.8587 135.889 40.72C135.91 40.5707 135.964 40.4427 136.049 40.336C136.145 40.2293 136.262 40.16 136.401 40.128C136.55 40.096 136.71 40.1227 136.881 40.208C137.308 40.4107 137.708 40.5547 138.081 40.64C138.454 40.7147 138.822 40.752 139.185 40.752C139.697 40.752 140.076 40.6667 140.321 40.496C140.577 40.3147 140.705 40.08 140.705 39.792C140.705 39.5467 140.62 39.36 140.449 39.232C140.289 39.0933 140.044 38.992 139.713 38.928L138.113 38.624C137.452 38.496 136.945 38.256 136.593 37.904C136.252 37.5413 136.081 37.0773 136.081 36.512C136.081 36 136.22 35.5573 136.497 35.184C136.785 34.8107 137.18 34.5227 137.681 34.32C138.182 34.1173 138.758 34.016 139.409 34.016C139.878 34.016 140.316 34.0693 140.721 34.176C141.137 34.272 141.537 34.4267 141.921 34.64C142.081 34.7253 142.188 34.8373 142.241 34.976C142.305 35.1147 142.321 35.2587 142.289 35.408C142.257 35.5467 142.193 35.6747 142.097 35.792C142.001 35.8987 141.878 35.968 141.729 36C141.59 36.0213 141.43 35.9893 141.249 35.904C140.918 35.7333 140.598 35.6107 140.289 35.536C139.99 35.4613 139.702 35.424 139.425 35.424C138.902 35.424 138.513 35.5147 138.257 35.696C138.012 35.8773 137.889 36.1173 137.889 36.416C137.889 36.64 137.964 36.8267 138.113 36.976C138.262 37.1253 138.492 37.2267 138.801 37.28L140.401 37.584C141.094 37.712 141.617 37.9467 141.969 38.288C142.332 38.6293 142.513 39.088 142.513 39.664C142.513 40.4427 142.209 41.056 141.601 41.504C140.993 41.9413 140.182 42.16 139.169 42.16Z" fill="black"/>
<path d="M143.12 78.16C142.651 78.16 142.181 78.1227 141.712 78.048C141.243 77.984 140.8 77.8827 140.384 77.744C139.968 77.5947 139.595 77.4133 139.264 77.2C139.072 77.072 138.939 76.9173 138.864 76.736C138.789 76.5547 138.763 76.3787 138.784 76.208C138.816 76.0267 138.885 75.872 138.992 75.744C139.109 75.6053 139.253 75.52 139.424 75.488C139.595 75.456 139.781 75.504 139.984 75.632C140.453 75.9093 140.949 76.112 141.472 76.24C141.995 76.368 142.544 76.432 143.12 76.432C143.963 76.432 144.576 76.2933 144.96 76.016C145.344 75.728 145.536 75.36 145.536 74.912C145.536 74.5387 145.397 74.2453 145.12 74.032C144.853 73.8187 144.389 73.6427 143.728 73.504L141.968 73.136C140.955 72.9227 140.197 72.5653 139.696 72.064C139.205 71.552 138.96 70.88 138.96 70.048C138.96 69.5253 139.067 69.0507 139.28 68.624C139.493 68.1973 139.792 67.8293 140.176 67.52C140.571 67.2107 141.035 66.976 141.568 66.816C142.112 66.6453 142.709 66.56 143.36 66.56C144 66.56 144.608 66.64 145.184 66.8C145.76 66.96 146.277 67.1947 146.736 67.504C146.907 67.6213 147.019 67.7653 147.072 67.936C147.136 68.1067 147.152 68.2773 147.12 68.448C147.088 68.608 147.013 68.7467 146.896 68.864C146.779 68.9813 146.629 69.0507 146.448 69.072C146.277 69.0933 146.08 69.04 145.856 68.912C145.461 68.688 145.061 68.528 144.656 68.432C144.251 68.336 143.813 68.288 143.344 68.288C142.853 68.288 142.432 68.3573 142.08 68.496C141.728 68.6347 141.456 68.832 141.264 69.088C141.083 69.3333 140.992 69.6267 140.992 69.968C140.992 70.352 141.12 70.6613 141.376 70.896C141.632 71.12 142.069 71.296 142.688 71.424L144.432 71.792C145.488 72.016 146.272 72.368 146.784 72.848C147.307 73.328 147.568 73.968 147.568 74.768C147.568 75.28 147.461 75.744 147.248 76.16C147.045 76.576 146.747 76.9333 146.352 77.232C145.968 77.5307 145.504 77.76 144.96 77.92C144.416 78.08 143.803 78.16 143.12 78.16ZM153.406 78.16C152.755 78.16 152.216 78.0427 151.79 77.808C151.363 77.5627 151.043 77.2 150.83 76.72C150.627 76.24 150.526 75.6427 150.526 74.928V71.056C150.526 70.7147 150.611 70.464 150.782 70.304C150.952 70.1333 151.198 70.048 151.518 70.048C151.838 70.048 152.083 70.1333 152.254 70.304C152.435 70.464 152.526 70.7147 152.526 71.056V74.96C152.526 75.5147 152.638 75.9253 152.862 76.192C153.086 76.4587 153.443 76.592 153.934 76.592C154.467 76.592 154.904 76.4107 155.246 76.048C155.587 75.6747 155.758 75.184 155.758 74.576V71.056C155.758 70.7147 155.843 70.464 156.014 70.304C156.184 70.1333 156.43 70.048 156.75 70.048C157.07 70.048 157.315 70.1333 157.486 70.304C157.667 70.464 157.758 70.7147 157.758 71.056V77.104C157.758 77.7867 157.432 78.128 156.782 78.128C156.472 78.128 156.232 78.0427 156.062 77.872C155.891 77.6907 155.806 77.4347 155.806 77.104V75.888L156.03 76.368C155.806 76.944 155.464 77.3867 155.006 77.696C154.558 78.0053 154.024 78.16 153.406 78.16ZM162.271 81.008C161.951 81.008 161.706 80.9227 161.535 80.752C161.365 80.5813 161.279 80.3307 161.279 80V71.056C161.279 70.7253 161.365 70.4747 161.535 70.304C161.706 70.1333 161.946 70.048 162.255 70.048C162.575 70.048 162.821 70.1333 162.991 70.304C163.162 70.4747 163.247 70.7253 163.247 71.056V72.304L163.071 71.824C163.231 71.28 163.557 70.8427 164.047 70.512C164.549 70.1813 165.13 70.016 165.791 70.016C166.474 70.016 167.071 70.1813 167.583 70.512C168.106 70.8427 168.511 71.312 168.799 71.92C169.087 72.5173 169.231 73.2373 169.231 74.08C169.231 74.912 169.087 75.6373 168.799 76.256C168.511 76.864 168.111 77.3333 167.599 77.664C167.087 77.9947 166.485 78.16 165.791 78.16C165.141 78.16 164.57 78 164.079 77.68C163.589 77.3493 163.258 76.9227 163.087 76.4H163.279V80C163.279 80.3307 163.189 80.5813 163.007 80.752C162.837 80.9227 162.591 81.008 162.271 81.008ZM165.231 76.64C165.626 76.64 165.973 76.544 166.271 76.352C166.57 76.16 166.799 75.8773 166.959 75.504C167.13 75.12 167.215 74.6453 167.215 74.08C167.215 73.2267 167.034 72.592 166.671 72.176C166.309 71.7493 165.829 71.536 165.231 71.536C164.837 71.536 164.49 71.632 164.191 71.824C163.893 72.0053 163.658 72.288 163.487 72.672C163.327 73.0453 163.247 73.5147 163.247 74.08C163.247 74.9227 163.429 75.5627 163.791 76C164.154 76.4267 164.634 76.64 165.231 76.64ZM173.305 81.008C172.985 81.008 172.74 80.9227 172.569 80.752C172.398 80.5813 172.313 80.3307 172.313 80V71.056C172.313 70.7253 172.398 70.4747 172.569 70.304C172.74 70.1333 172.98 70.048 173.289 70.048C173.609 70.048 173.854 70.1333 174.025 70.304C174.196 70.4747 174.281 70.7253 174.281 71.056V72.304L174.105 71.824C174.265 71.28 174.59 70.8427 175.081 70.512C175.582 70.1813 176.164 70.016 176.825 70.016C177.508 70.016 178.105 70.1813 178.617 70.512C179.14 70.8427 179.545 71.312 179.833 71.92C180.121 72.5173 180.265 73.2373 180.265 74.08C180.265 74.912 180.121 75.6373 179.833 76.256C179.545 76.864 179.145 77.3333 178.633 77.664C178.121 77.9947 177.518 78.16 176.825 78.16C176.174 78.16 175.604 78 175.113 77.68C174.622 77.3493 174.292 76.9227 174.121 76.4H174.313V80C174.313 80.3307 174.222 80.5813 174.041 80.752C173.87 80.9227 173.625 81.008 173.305 81.008ZM176.265 76.64C176.66 76.64 177.006 76.544 177.305 76.352C177.604 76.16 177.833 75.8773 177.993 75.504C178.164 75.12 178.249 74.6453 178.249 74.08C178.249 73.2267 178.068 72.592 177.705 72.176C177.342 71.7493 176.862 71.536 176.265 71.536C175.87 71.536 175.524 71.632 175.225 71.824C174.926 72.0053 174.692 72.288 174.521 72.672C174.361 73.0453 174.281 73.5147 174.281 74.08C174.281 74.9227 174.462 75.5627 174.825 76C175.188 76.4267 175.668 76.64 176.265 76.64ZM186.915 78.16C186.104 78.16 185.4 77.9947 184.803 77.664C184.206 77.3333 183.742 76.864 183.411 76.256C183.08 75.6373 182.915 74.912 182.915 74.08C182.915 73.4507 183.006 72.8907 183.187 72.4C183.379 71.8987 183.651 71.472 184.003 71.12C184.355 70.7573 184.776 70.4853 185.267 70.304C185.758 70.112 186.307 70.016 186.915 70.016C187.726 70.016 188.43 70.1813 189.027 70.512C189.624 70.8427 190.088 71.312 190.419 71.92C190.75 72.528 190.915 73.248 190.915 74.08C190.915 74.7093 190.819 75.2747 190.627 75.776C190.446 76.2773 190.179 76.7093 189.827 77.072C189.475 77.424 189.054 77.696 188.563 77.888C188.072 78.0693 187.523 78.16 186.915 78.16ZM186.915 76.64C187.31 76.64 187.656 76.544 187.955 76.352C188.254 76.16 188.483 75.8773 188.643 75.504C188.814 75.12 188.899 74.6453 188.899 74.08C188.899 73.2267 188.718 72.592 188.355 72.176C187.992 71.7493 187.512 71.536 186.915 71.536C186.52 71.536 186.174 71.632 185.875 71.824C185.576 72.0053 185.342 72.288 185.171 72.672C185.011 73.0453 184.931 73.5147 184.931 74.08C184.931 74.9227 185.112 75.5627 185.475 76C185.838 76.4267 186.318 76.64 186.915 76.64ZM195.03 78.128C194.699 78.128 194.443 78.0427 194.262 77.872C194.091 77.6907 194.006 77.4347 194.006 77.104V71.056C194.006 70.7253 194.091 70.4747 194.262 70.304C194.432 70.1333 194.672 70.048 194.982 70.048C195.291 70.048 195.531 70.1333 195.702 70.304C195.872 70.4747 195.958 70.7253 195.958 71.056V72.064H195.798C195.947 71.424 196.24 70.9387 196.678 70.608C197.115 70.2773 197.696 70.08 198.422 70.016C198.646 69.9947 198.822 70.0533 198.95 70.192C199.088 70.32 199.168 70.5227 199.19 70.8C199.211 71.0667 199.147 71.2853 198.998 71.456C198.859 71.616 198.646 71.712 198.358 71.744L198.006 71.776C197.355 71.84 196.864 72.0427 196.534 72.384C196.203 72.7147 196.038 73.184 196.038 73.792V77.104C196.038 77.4347 195.952 77.6907 195.782 77.872C195.611 78.0427 195.36 78.128 195.03 78.128ZM205.748 78.16C205.055 78.16 204.474 78.0427 204.004 77.808C203.546 77.5733 203.204 77.232 202.98 76.784C202.756 76.3253 202.644 75.76 202.644 75.088V71.68H201.812C201.556 71.68 201.359 71.616 201.22 71.488C201.082 71.3493 201.012 71.1627 201.012 70.928C201.012 70.6827 201.082 70.496 201.22 70.368C201.359 70.24 201.556 70.176 201.812 70.176H202.644V68.72C202.644 68.3893 202.73 68.1387 202.9 67.968C203.082 67.7973 203.332 67.712 203.652 67.712C203.972 67.712 204.218 67.7973 204.388 67.968C204.559 68.1387 204.644 68.3893 204.644 68.72V70.176H206.34C206.596 70.176 206.794 70.24 206.932 70.368C207.071 70.496 207.14 70.6827 207.14 70.928C207.14 71.1627 207.071 71.3493 206.932 71.488C206.794 71.616 206.596 71.68 206.34 71.68H204.644V74.976C204.644 75.488 204.756 75.872 204.98 76.128C205.204 76.384 205.567 76.512 206.068 76.512C206.25 76.512 206.41 76.496 206.548 76.464C206.687 76.432 206.81 76.4107 206.916 76.4C207.044 76.3893 207.151 76.432 207.236 76.528C207.322 76.6133 207.364 76.7947 207.364 77.072C207.364 77.2853 207.327 77.4773 207.252 77.648C207.188 77.808 207.066 77.92 206.884 77.984C206.746 78.0267 206.564 78.064 206.34 78.096C206.116 78.1387 205.919 78.16 205.748 78.16Z" fill="black"/>
<path d="M127.256 152.128C126.925 152.128 126.669 152.037 126.488 151.856C126.317 151.664 126.232 151.403 126.232 151.072V141.632C126.232 141.291 126.317 141.035 126.488 140.864C126.669 140.683 126.925 140.592 127.256 140.592C127.587 140.592 127.837 140.683 128.008 140.864C128.189 141.035 128.28 141.291 128.28 141.632V145.712H128.312L132.904 141.104C133.075 140.933 133.245 140.805 133.416 140.72C133.587 140.635 133.779 140.592 133.992 140.592C134.301 140.592 134.52 140.672 134.648 140.832C134.787 140.992 134.84 141.179 134.808 141.392C134.787 141.605 134.685 141.803 134.504 141.984L129.832 146.608L129.848 145.68L134.728 150.64C134.952 150.853 135.069 151.077 135.08 151.312C135.091 151.547 135.016 151.744 134.856 151.904C134.707 152.053 134.483 152.128 134.184 152.128C133.928 152.128 133.72 152.075 133.56 151.968C133.411 151.861 133.235 151.707 133.032 151.504L128.312 146.784H128.28V151.072C128.28 151.403 128.195 151.664 128.024 151.856C127.853 152.037 127.597 152.128 127.256 152.128ZM139.113 152.128C138.793 152.128 138.547 152.043 138.377 151.872C138.206 151.691 138.121 151.435 138.121 151.104V145.056C138.121 144.725 138.206 144.475 138.377 144.304C138.547 144.133 138.787 144.048 139.097 144.048C139.406 144.048 139.646 144.133 139.817 144.304C139.987 144.475 140.073 144.725 140.073 145.056V146.144L139.897 145.744C140.131 145.179 140.494 144.752 140.985 144.464C141.486 144.165 142.051 144.016 142.681 144.016C143.31 144.016 143.827 144.133 144.233 144.368C144.638 144.603 144.942 144.96 145.145 145.44C145.347 145.909 145.449 146.507 145.449 147.232V151.104C145.449 151.435 145.363 151.691 145.193 151.872C145.022 152.043 144.777 152.128 144.457 152.128C144.137 152.128 143.886 152.043 143.705 151.872C143.534 151.691 143.449 151.435 143.449 151.104V147.328C143.449 146.72 143.331 146.277 143.097 146C142.873 145.723 142.521 145.584 142.041 145.584C141.454 145.584 140.985 145.771 140.633 146.144C140.291 146.507 140.121 146.992 140.121 147.6V151.104C140.121 151.787 139.785 152.128 139.113 152.128ZM152.488 152.16C151.677 152.16 150.973 151.995 150.376 151.664C149.779 151.333 149.315 150.864 148.984 150.256C148.653 149.637 148.488 148.912 148.488 148.08C148.488 147.451 148.579 146.891 148.76 146.4C148.952 145.899 149.224 145.472 149.576 145.12C149.928 144.757 150.349 144.485 150.84 144.304C151.331 144.112 151.88 144.016 152.488 144.016C153.299 144.016 154.003 144.181 154.6 144.512C155.197 144.843 155.661 145.312 155.992 145.92C156.323 146.528 156.488 147.248 156.488 148.08C156.488 148.709 156.392 149.275 156.2 149.776C156.019 150.277 155.752 150.709 155.4 151.072C155.048 151.424 154.627 151.696 154.136 151.888C153.645 152.069 153.096 152.16 152.488 152.16ZM152.488 150.64C152.883 150.64 153.229 150.544 153.528 150.352C153.827 150.16 154.056 149.877 154.216 149.504C154.387 149.12 154.472 148.645 154.472 148.08C154.472 147.227 154.291 146.592 153.928 146.176C153.565 145.749 153.085 145.536 152.488 145.536C152.093 145.536 151.747 145.632 151.448 145.824C151.149 146.005 150.915 146.288 150.744 146.672C150.584 147.045 150.504 147.515 150.504 148.08C150.504 148.923 150.685 149.563 151.048 150C151.411 150.427 151.891 150.64 152.488 150.64ZM162.446 152.128C162.18 152.128 161.95 152.064 161.758 151.936C161.566 151.797 161.412 151.584 161.294 151.296L158.974 145.376C158.878 145.12 158.846 144.896 158.878 144.704C158.921 144.501 159.022 144.341 159.182 144.224C159.342 144.107 159.556 144.048 159.822 144.048C160.057 144.048 160.249 144.107 160.398 144.224C160.548 144.331 160.676 144.539 160.782 144.848L162.719 150.176H162.35L164.351 144.72C164.436 144.485 164.548 144.315 164.687 144.208C164.836 144.101 165.028 144.048 165.262 144.048C165.497 144.048 165.689 144.107 165.839 144.224C165.988 144.331 166.1 144.496 166.174 144.72L168.142 150.176H167.807L169.759 144.8C169.865 144.512 169.999 144.315 170.159 144.208C170.329 144.101 170.516 144.048 170.719 144.048C170.975 144.048 171.172 144.112 171.311 144.24C171.449 144.368 171.529 144.533 171.55 144.736C171.572 144.928 171.535 145.141 171.439 145.376L169.135 151.296C169.028 151.573 168.873 151.781 168.67 151.92C168.478 152.059 168.249 152.128 167.983 152.128C167.716 152.128 167.481 152.059 167.279 151.92C167.087 151.781 166.937 151.573 166.83 151.296L164.734 145.744H165.647L163.598 151.28C163.492 151.568 163.342 151.781 163.15 151.92C162.958 152.059 162.724 152.128 162.446 152.128ZM177.175 152.16C176.29 152.16 175.623 151.909 175.175 151.408C174.727 150.896 174.503 150.149 174.503 149.168V141.6C174.503 141.269 174.588 141.019 174.759 140.848C174.93 140.677 175.175 140.592 175.495 140.592C175.815 140.592 176.06 140.677 176.231 140.848C176.412 141.019 176.503 141.269 176.503 141.6V149.072C176.503 149.563 176.604 149.925 176.807 150.16C177.02 150.395 177.319 150.512 177.703 150.512C177.788 150.512 177.868 150.512 177.943 150.512C178.018 150.501 178.092 150.491 178.167 150.48C178.316 150.459 178.418 150.501 178.471 150.608C178.524 150.704 178.551 150.907 178.551 151.216C178.551 151.483 178.498 151.691 178.391 151.84C178.284 151.989 178.108 152.08 177.863 152.112C177.756 152.123 177.644 152.133 177.527 152.144C177.41 152.155 177.292 152.16 177.175 152.16ZM184.83 152.16C183.945 152.16 183.182 151.995 182.542 151.664C181.902 151.333 181.406 150.864 181.054 150.256C180.713 149.648 180.542 148.928 180.542 148.096C180.542 147.285 180.708 146.576 181.038 145.968C181.38 145.36 181.844 144.885 182.43 144.544C183.028 144.192 183.705 144.016 184.462 144.016C185.017 144.016 185.513 144.107 185.95 144.288C186.398 144.469 186.777 144.731 187.086 145.072C187.406 145.413 187.646 145.829 187.806 146.32C187.977 146.8 188.062 147.344 188.062 147.952C188.062 148.144 187.993 148.293 187.854 148.4C187.726 148.496 187.54 148.544 187.294 148.544H182.158V147.392H186.654L186.398 147.632C186.398 147.141 186.324 146.731 186.174 146.4C186.036 146.069 185.828 145.819 185.55 145.648C185.284 145.467 184.948 145.376 184.542 145.376C184.094 145.376 183.71 145.483 183.39 145.696C183.081 145.899 182.841 146.192 182.67 146.576C182.51 146.949 182.43 147.397 182.43 147.92V148.032C182.43 148.907 182.633 149.563 183.038 150C183.454 150.427 184.062 150.64 184.862 150.64C185.14 150.64 185.449 150.608 185.79 150.544C186.142 150.469 186.473 150.347 186.782 150.176C187.006 150.048 187.204 149.995 187.374 150.016C187.545 150.027 187.678 150.085 187.774 150.192C187.881 150.299 187.945 150.432 187.966 150.592C187.988 150.741 187.956 150.896 187.87 151.056C187.796 151.216 187.662 151.355 187.47 151.472C187.097 151.707 186.665 151.883 186.174 152C185.694 152.107 185.246 152.16 184.83 152.16ZM194.094 152.16C193.412 152.16 192.809 151.995 192.286 151.664C191.774 151.333 191.374 150.864 191.086 150.256C190.798 149.637 190.654 148.912 190.654 148.08C190.654 147.237 190.798 146.517 191.086 145.92C191.374 145.312 191.774 144.843 192.286 144.512C192.809 144.181 193.412 144.016 194.094 144.016C194.745 144.016 195.31 144.176 195.79 144.496C196.281 144.816 196.612 145.237 196.782 145.76H196.606V141.6C196.606 141.269 196.692 141.019 196.862 140.848C197.033 140.677 197.278 140.592 197.598 140.592C197.918 140.592 198.164 140.677 198.334 140.848C198.516 141.019 198.606 141.269 198.606 141.6V151.104C198.606 151.435 198.521 151.691 198.35 151.872C198.18 152.043 197.934 152.128 197.614 152.128C197.294 152.128 197.049 152.043 196.878 151.872C196.708 151.691 196.622 151.435 196.622 151.104V149.856L196.798 150.336C196.638 150.891 196.313 151.333 195.822 151.664C195.332 151.995 194.756 152.16 194.094 152.16ZM194.654 150.64C195.049 150.64 195.396 150.544 195.694 150.352C195.993 150.16 196.222 149.877 196.382 149.504C196.553 149.12 196.638 148.645 196.638 148.08C196.638 147.227 196.457 146.592 196.094 146.176C195.732 145.749 195.252 145.536 194.654 145.536C194.26 145.536 193.913 145.632 193.614 145.824C193.316 146.005 193.081 146.288 192.91 146.672C192.75 147.045 192.67 147.515 192.67 148.08C192.67 148.923 192.852 149.563 193.214 150C193.577 150.427 194.057 150.64 194.654 150.64ZM205.768 155.04C205.192 155.04 204.632 154.987 204.088 154.88C203.555 154.773 203.069 154.608 202.632 154.384C202.429 154.277 202.291 154.149 202.216 154C202.152 153.851 202.131 153.696 202.152 153.536C202.184 153.387 202.248 153.253 202.344 153.136C202.451 153.019 202.579 152.939 202.728 152.896C202.877 152.853 203.032 152.875 203.192 152.96C203.661 153.195 204.104 153.344 204.52 153.408C204.947 153.483 205.309 153.52 205.608 153.52C206.323 153.52 206.856 153.344 207.208 152.992C207.571 152.651 207.752 152.139 207.752 151.456V150.016H207.896C207.736 150.56 207.4 150.997 206.888 151.328C206.387 151.648 205.816 151.808 205.176 151.808C204.472 151.808 203.859 151.648 203.336 151.328C202.813 150.997 202.408 150.539 202.12 149.952C201.832 149.365 201.688 148.683 201.688 147.904C201.688 147.317 201.768 146.789 201.928 146.32C202.099 145.84 202.333 145.429 202.632 145.088C202.941 144.747 203.309 144.485 203.736 144.304C204.173 144.112 204.653 144.016 205.176 144.016C205.837 144.016 206.413 144.181 206.904 144.512C207.405 144.832 207.731 145.259 207.88 145.792L207.72 146.192V145.056C207.72 144.725 207.805 144.475 207.976 144.304C208.157 144.133 208.403 144.048 208.712 144.048C209.032 144.048 209.277 144.133 209.448 144.304C209.619 144.475 209.704 144.725 209.704 145.056V151.216C209.704 152.485 209.368 153.44 208.696 154.08C208.024 154.72 207.048 155.04 205.768 155.04ZM205.72 150.288C206.136 150.288 206.493 150.192 206.792 150C207.091 149.808 207.32 149.536 207.48 149.184C207.651 148.821 207.736 148.395 207.736 147.904C207.736 147.168 207.555 146.592 207.192 146.176C206.829 145.749 206.339 145.536 205.72 145.536C205.304 145.536 204.947 145.632 204.648 145.824C204.349 146.016 204.115 146.288 203.944 146.64C203.784 146.992 203.704 147.413 203.704 147.904C203.704 148.64 203.885 149.221 204.248 149.648C204.611 150.075 205.101 150.288 205.72 150.288ZM217.072 152.16C216.187 152.16 215.424 151.995 214.784 151.664C214.144 151.333 213.648 150.864 213.296 150.256C212.955 149.648 212.784 148.928 212.784 148.096C212.784 147.285 212.95 146.576 213.28 145.968C213.622 145.36 214.086 144.885 214.672 144.544C215.27 144.192 215.947 144.016 216.704 144.016C217.259 144.016 217.755 144.107 218.192 144.288C218.64 144.469 219.019 144.731 219.328 145.072C219.648 145.413 219.888 145.829 220.048 146.32C220.219 146.8 220.304 147.344 220.304 147.952C220.304 148.144 220.235 148.293 220.096 148.4C219.968 148.496 219.782 148.544 219.536 148.544H214.4V147.392H218.896L218.64 147.632C218.64 147.141 218.566 146.731 218.416 146.4C218.278 146.069 218.07 145.819 217.792 145.648C217.526 145.467 217.19 145.376 216.784 145.376C216.336 145.376 215.952 145.483 215.632 145.696C215.323 145.899 215.083 146.192 214.912 146.576C214.752 146.949 214.672 147.397 214.672 147.92V148.032C214.672 148.907 214.875 149.563 215.28 150C215.696 150.427 216.304 150.64 217.104 150.64C217.382 150.64 217.691 150.608 218.032 150.544C218.384 150.469 218.715 150.347 219.024 150.176C219.248 150.048 219.446 149.995 219.616 150.016C219.787 150.027 219.92 150.085 220.016 150.192C220.123 150.299 220.187 150.432 220.208 150.592C220.23 150.741 220.198 150.896 220.112 151.056C220.038 151.216 219.904 151.355 219.712 151.472C219.339 151.707 218.907 151.883 218.416 152C217.936 152.107 217.488 152.16 217.072 152.16Z" fill="black"/>
<path d="M2.32 151C1.968 151 1.696 150.909 1.504 150.728C1.32267 150.536 1.232 150.264 1.232 149.912V140.808C1.232 140.456 1.32267 140.189 1.504 140.008C1.696 139.816 1.968 139.72 2.32 139.72H8.032C8.29867 139.72 8.50133 139.789 8.64 139.928C8.78933 140.067 8.864 140.264 8.864 140.52C8.864 140.787 8.78933 140.995 8.64 141.144C8.50133 141.283 8.29867 141.352 8.032 141.352H3.2V144.456H7.68C7.95733 144.456 8.16533 144.525 8.304 144.664C8.44267 144.803 8.512 145.005 8.512 145.272C8.512 145.539 8.44267 145.741 8.304 145.88C8.16533 146.019 7.95733 146.088 7.68 146.088H3.2V149.368H8.032C8.29867 149.368 8.50133 149.437 8.64 149.576C8.78933 149.715 8.864 149.917 8.864 150.184C8.864 150.451 8.78933 150.653 8.64 150.792C8.50133 150.931 8.29867 151 8.032 151H2.32ZM12.5709 151.08C12.3362 151.08 12.1389 151.016 11.9789 150.888C11.8295 150.749 11.7495 150.573 11.7389 150.36C11.7389 150.147 11.8295 149.923 12.0109 149.688L14.6029 146.488V147.432L12.1709 144.44C11.9789 144.205 11.8882 143.981 11.8989 143.768C11.9095 143.555 11.9895 143.384 12.1389 143.256C12.2989 143.117 12.4962 143.048 12.7309 143.048C12.9762 143.048 13.1789 143.091 13.3389 143.176C13.5095 143.261 13.6642 143.395 13.8029 143.576L15.7229 146.04H15.0189L16.9549 143.576C17.1042 143.395 17.2589 143.261 17.4189 143.176C17.5789 143.091 17.7762 143.048 18.0109 143.048C18.2562 143.048 18.4535 143.117 18.6029 143.256C18.7522 143.395 18.8269 143.571 18.8269 143.784C18.8375 143.997 18.7469 144.221 18.5549 144.456L16.1389 147.416V146.52L18.7309 149.688C18.9229 149.912 19.0135 150.131 19.0029 150.344C18.9922 150.557 18.9069 150.733 18.7469 150.872C18.5975 151.011 18.4002 151.08 18.1549 151.08C17.9202 151.08 17.7229 151.037 17.5629 150.952C17.4029 150.867 17.2482 150.733 17.0989 150.552L15.0189 147.928H15.6909L13.6269 150.552C13.4882 150.723 13.3389 150.856 13.1789 150.952C13.0189 151.037 12.8162 151.08 12.5709 151.08ZM23.1933 154.008C22.8733 154.008 22.6279 153.923 22.4573 153.752C22.2866 153.581 22.2013 153.331 22.2013 153V144.056C22.2013 143.725 22.2866 143.475 22.4573 143.304C22.6279 143.133 22.8679 143.048 23.1773 143.048C23.4973 143.048 23.7426 143.133 23.9133 143.304C24.0839 143.475 24.1693 143.725 24.1693 144.056V145.304L23.9933 144.824C24.1533 144.28 24.4786 143.843 24.9693 143.512C25.4706 143.181 26.0519 143.016 26.7133 143.016C27.3959 143.016 27.9933 143.181 28.5053 143.512C29.0279 143.843 29.4333 144.312 29.7213 144.92C30.0093 145.517 30.1533 146.237 30.1533 147.08C30.1533 147.912 30.0093 148.637 29.7213 149.256C29.4333 149.864 29.0333 150.333 28.5213 150.664C28.0093 150.995 27.4066 151.16 26.7133 151.16C26.0626 151.16 25.4919 151 25.0013 150.68C24.5106 150.349 24.1799 149.923 24.0093 149.4H24.2013V153C24.2013 153.331 24.1106 153.581 23.9293 153.752C23.7586 153.923 23.5133 154.008 23.1933 154.008ZM26.1533 149.64C26.5479 149.64 26.8946 149.544 27.1933 149.352C27.4919 149.16 27.7213 148.877 27.8813 148.504C28.0519 148.12 28.1373 147.645 28.1373 147.08C28.1373 146.227 27.9559 145.592 27.5933 145.176C27.2306 144.749 26.7506 144.536 26.1533 144.536C25.7586 144.536 25.4119 144.632 25.1133 144.824C24.8146 145.005 24.5799 145.288 24.4093 145.672C24.2493 146.045 24.1693 146.515 24.1693 147.08C24.1693 147.923 24.3506 148.563 24.7133 149C25.0759 149.427 25.5559 149.64 26.1533 149.64ZM37.091 151.16C36.2057 151.16 35.443 150.995 34.803 150.664C34.163 150.333 33.667 149.864 33.315 149.256C32.9737 148.648 32.803 147.928 32.803 147.096C32.803 146.285 32.9683 145.576 33.299 144.968C33.6403 144.36 34.1043 143.885 34.691 143.544C35.2883 143.192 35.9657 143.016 36.723 143.016C37.2777 143.016 37.7737 143.107 38.211 143.288C38.659 143.469 39.0377 143.731 39.347 144.072C39.667 144.413 39.907 144.829 40.067 145.32C40.2377 145.8 40.323 146.344 40.323 146.952C40.323 147.144 40.2537 147.293 40.115 147.4C39.987 147.496 39.8003 147.544 39.555 147.544H34.419V146.392H38.915L38.659 146.632C38.659 146.141 38.5843 145.731 38.435 145.4C38.2963 145.069 38.0883 144.819 37.811 144.648C37.5443 144.467 37.2083 144.376 36.803 144.376C36.355 144.376 35.971 144.483 35.651 144.696C35.3417 144.899 35.1017 145.192 34.931 145.576C34.771 145.949 34.691 146.397 34.691 146.92V147.032C34.691 147.907 34.8937 148.563 35.299 149C35.715 149.427 36.323 149.64 37.123 149.64C37.4003 149.64 37.7097 149.608 38.051 149.544C38.403 149.469 38.7337 149.347 39.043 149.176C39.267 149.048 39.4643 148.995 39.635 149.016C39.8057 149.027 39.939 149.085 40.035 149.192C40.1417 149.299 40.2057 149.432 40.227 149.592C40.2483 149.741 40.2163 149.896 40.131 150.056C40.0563 150.216 39.923 150.355 39.731 150.472C39.3577 150.707 38.9257 150.883 38.435 151C37.955 151.107 37.507 151.16 37.091 151.16ZM44.3709 151.128C44.0402 151.128 43.7842 151.043 43.6029 150.872C43.4322 150.691 43.3469 150.435 43.3469 150.104V144.056C43.3469 143.725 43.4322 143.475 43.6029 143.304C43.7735 143.133 44.0135 143.048 44.3229 143.048C44.6322 143.048 44.8722 143.133 45.0429 143.304C45.2135 143.475 45.2989 143.725 45.2989 144.056V145.064H45.1389C45.2882 144.424 45.5815 143.939 46.0189 143.608C46.4562 143.277 47.0375 143.08 47.7629 143.016C47.9869 142.995 48.1629 143.053 48.2909 143.192C48.4295 143.32 48.5095 143.523 48.5309 143.8C48.5522 144.067 48.4882 144.285 48.3389 144.456C48.2002 144.616 47.9869 144.712 47.6989 144.744L47.3469 144.776C46.6962 144.84 46.2055 145.043 45.8749 145.384C45.5442 145.715 45.3789 146.184 45.3789 146.792V150.104C45.3789 150.435 45.2935 150.691 45.1229 150.872C44.9522 151.043 44.7015 151.128 44.3709 151.128ZM52.0445 151.112C51.7245 151.112 51.4792 151.016 51.3085 150.824C51.1378 150.632 51.0525 150.365 51.0525 150.024V144.152C51.0525 143.8 51.1378 143.533 51.3085 143.352C51.4792 143.16 51.7245 143.064 52.0445 143.064C52.3645 143.064 52.6098 143.16 52.7805 143.352C52.9618 143.533 53.0525 143.8 53.0525 144.152V150.024C53.0525 150.365 52.9672 150.632 52.7965 150.824C52.6258 151.016 52.3752 151.112 52.0445 151.112ZM52.0445 141.576C51.6712 141.576 51.3778 141.485 51.1645 141.304C50.9618 141.112 50.8605 140.851 50.8605 140.52C50.8605 140.179 50.9618 139.917 51.1645 139.736C51.3778 139.555 51.6712 139.464 52.0445 139.464C52.4285 139.464 52.7218 139.555 52.9245 139.736C53.1272 139.917 53.2285 140.179 53.2285 140.52C53.2285 140.851 53.1272 141.112 52.9245 141.304C52.7218 141.485 52.4285 141.576 52.0445 141.576ZM60.4266 151.16C59.5413 151.16 58.7786 150.995 58.1386 150.664C57.4986 150.333 57.0026 149.864 56.6506 149.256C56.3093 148.648 56.1386 147.928 56.1386 147.096C56.1386 146.285 56.304 145.576 56.6346 144.968C56.976 144.36 57.44 143.885 58.0266 143.544C58.624 143.192 59.3013 143.016 60.0586 143.016C60.6133 143.016 61.1093 143.107 61.5466 143.288C61.9946 143.469 62.3733 143.731 62.6826 144.072C63.0026 144.413 63.2426 144.829 63.4026 145.32C63.5733 145.8 63.6586 146.344 63.6586 146.952C63.6586 147.144 63.5893 147.293 63.4506 147.4C63.3226 147.496 63.136 147.544 62.8906 147.544H57.7546V146.392H62.2506L61.9946 146.632C61.9946 146.141 61.92 145.731 61.7706 145.4C61.632 145.069 61.424 144.819 61.1466 144.648C60.88 144.467 60.544 144.376 60.1386 144.376C59.6906 144.376 59.3066 144.483 58.9866 144.696C58.6773 144.899 58.4373 145.192 58.2666 145.576C58.1066 145.949 58.0266 146.397 58.0266 146.92V147.032C58.0266 147.907 58.2293 148.563 58.6346 149C59.0506 149.427 59.6586 149.64 60.4586 149.64C60.736 149.64 61.0453 149.608 61.3866 149.544C61.7386 149.469 62.0693 149.347 62.3786 149.176C62.6026 149.048 62.8 148.995 62.9706 149.016C63.1413 149.027 63.2746 149.085 63.3706 149.192C63.4773 149.299 63.5413 149.432 63.5626 149.592C63.584 149.741 63.552 149.896 63.4666 150.056C63.392 150.216 63.2586 150.355 63.0666 150.472C62.6933 150.707 62.2613 150.883 61.7706 151C61.2906 151.107 60.8426 151.16 60.4266 151.16ZM67.6745 151.128C67.3545 151.128 67.1092 151.043 66.9385 150.872C66.7678 150.691 66.6825 150.435 66.6825 150.104V144.056C66.6825 143.725 66.7678 143.475 66.9385 143.304C67.1092 143.133 67.3492 143.048 67.6585 143.048C67.9678 143.048 68.2078 143.133 68.3785 143.304C68.5492 143.475 68.6345 143.725 68.6345 144.056V145.144L68.4585 144.744C68.6932 144.179 69.0558 143.752 69.5465 143.464C70.0478 143.165 70.6132 143.016 71.2425 143.016C71.8718 143.016 72.3892 143.133 72.7945 143.368C73.1998 143.603 73.5038 143.96 73.7065 144.44C73.9092 144.909 74.0105 145.507 74.0105 146.232V150.104C74.0105 150.435 73.9252 150.691 73.7545 150.872C73.5838 151.043 73.3385 151.128 73.0185 151.128C72.6985 151.128 72.4478 151.043 72.2665 150.872C72.0958 150.691 72.0105 150.435 72.0105 150.104V146.328C72.0105 145.72 71.8932 145.277 71.6585 145C71.4345 144.723 71.0825 144.584 70.6025 144.584C70.0158 144.584 69.5465 144.771 69.1945 145.144C68.8532 145.507 68.6825 145.992 68.6825 146.6V150.104C68.6825 150.787 68.3465 151.128 67.6745 151.128ZM81.0979 151.16C80.2765 151.16 79.5619 150.995 78.9539 150.664C78.3459 150.323 77.8765 149.843 77.5459 149.224C77.2152 148.605 77.0499 147.88 77.0499 147.048C77.0499 146.419 77.1405 145.859 77.3219 145.368C77.5139 144.867 77.7859 144.445 78.1379 144.104C78.4899 143.752 78.9165 143.485 79.4179 143.304C79.9192 143.112 80.4792 143.016 81.0979 143.016C81.4499 143.016 81.8285 143.064 82.2339 143.16C82.6499 143.256 83.0392 143.416 83.4019 143.64C83.5725 143.747 83.6845 143.875 83.7379 144.024C83.7912 144.173 83.8019 144.328 83.7699 144.488C83.7379 144.637 83.6685 144.771 83.5619 144.888C83.4659 144.995 83.3432 145.064 83.1939 145.096C83.0445 145.117 82.8792 145.08 82.6979 144.984C82.4632 144.845 82.2232 144.744 81.9779 144.68C81.7325 144.605 81.4979 144.568 81.2739 144.568C80.9219 144.568 80.6125 144.627 80.3459 144.744C80.0792 144.851 79.8499 145.011 79.6579 145.224C79.4765 145.427 79.3379 145.683 79.2419 145.992C79.1459 146.301 79.0979 146.659 79.0979 147.064C79.0979 147.853 79.2845 148.477 79.6579 148.936C80.0419 149.384 80.5805 149.608 81.2739 149.608C81.4979 149.608 81.7272 149.576 81.9619 149.512C82.2072 149.448 82.4525 149.347 82.6979 149.208C82.8792 149.112 83.0392 149.08 83.1779 149.112C83.3272 149.144 83.4499 149.219 83.5459 149.336C83.6419 149.443 83.7005 149.576 83.7219 149.736C83.7432 149.885 83.7219 150.035 83.6579 150.184C83.6045 150.333 83.4979 150.456 83.3379 150.552C82.9859 150.765 82.6125 150.92 82.2179 151.016C81.8232 151.112 81.4499 151.16 81.0979 151.16ZM90.1685 151.16C89.2832 151.16 88.5205 150.995 87.8805 150.664C87.2405 150.333 86.7445 149.864 86.3925 149.256C86.0512 148.648 85.8805 147.928 85.8805 147.096C85.8805 146.285 86.0458 145.576 86.3765 144.968C86.7178 144.36 87.1818 143.885 87.7685 143.544C88.3658 143.192 89.0432 143.016 89.8005 143.016C90.3552 143.016 90.8512 143.107 91.2885 143.288C91.7365 143.469 92.1152 143.731 92.4245 144.072C92.7445 144.413 92.9845 144.829 93.1445 145.32C93.3152 145.8 93.4005 146.344 93.4005 146.952C93.4005 147.144 93.3312 147.293 93.1925 147.4C93.0645 147.496 92.8778 147.544 92.6325 147.544H87.4965V146.392H91.9925L91.7365 146.632C91.7365 146.141 91.6618 145.731 91.5125 145.4C91.3738 145.069 91.1658 144.819 90.8885 144.648C90.6218 144.467 90.2858 144.376 89.8805 144.376C89.4325 144.376 89.0485 144.483 88.7285 144.696C88.4192 144.899 88.1792 145.192 88.0085 145.576C87.8485 145.949 87.7685 146.397 87.7685 146.92V147.032C87.7685 147.907 87.9712 148.563 88.3765 149C88.7925 149.427 89.4005 149.64 90.2005 149.64C90.4778 149.64 90.7872 149.608 91.1285 149.544C91.4805 149.469 91.8112 149.347 92.1205 149.176C92.3445 149.048 92.5418 148.995 92.7125 149.016C92.8832 149.027 93.0165 149.085 93.1125 149.192C93.2192 149.299 93.2832 149.432 93.3045 149.592C93.3258 149.741 93.2938 149.896 93.2085 150.056C93.1338 150.216 93.0005 150.355 92.8085 150.472C92.4352 150.707 92.0032 150.883 91.5125 151C91.0325 151.107 90.5845 151.16 90.1685 151.16Z" fill="black"/>
<path d="M55.26 117.22C53.74 117.22 52.44 116.92 51.36 116.32C50.28 115.72 49.4467 114.88 48.86 113.8C48.2867 112.707 48 111.42 48 109.94C48 108.833 48.16 107.84 48.48 106.96C48.8133 106.067 49.2933 105.307 49.92 104.68C50.5467 104.04 51.3067 103.547 52.2 103.2C53.1067 102.853 54.1267 102.68 55.26 102.68C55.9267 102.68 56.6 102.767 57.28 102.94C57.9733 103.1 58.5733 103.333 59.08 103.64C59.4133 103.827 59.64 104.06 59.76 104.34C59.88 104.62 59.9133 104.9 59.86 105.18C59.82 105.46 59.7067 105.7 59.52 105.9C59.3467 106.1 59.1267 106.227 58.86 106.28C58.5933 106.333 58.2933 106.273 57.96 106.1C57.56 105.86 57.14 105.687 56.7 105.58C56.26 105.473 55.8133 105.42 55.36 105.42C54.4667 105.42 53.7133 105.6 53.1 105.96C52.5 106.307 52.0467 106.813 51.74 107.48C51.4333 108.147 51.28 108.967 51.28 109.94C51.28 110.9 51.4333 111.72 51.74 112.4C52.0467 113.08 52.5 113.6 53.1 113.96C53.7133 114.307 54.4667 114.48 55.36 114.48C55.7867 114.48 56.22 114.427 56.66 114.32C57.1133 114.213 57.5467 114.047 57.96 113.82C58.3067 113.647 58.6133 113.587 58.88 113.64C59.16 113.68 59.3867 113.8 59.56 114C59.7467 114.187 59.86 114.413 59.9 114.68C59.9533 114.947 59.9267 115.213 59.82 115.48C59.7133 115.747 59.5133 115.973 59.22 116.16C58.7267 116.493 58.12 116.753 57.4 116.94C56.68 117.127 55.9667 117.22 55.26 117.22ZM67.6488 117.22C66.5954 117.22 65.6754 117.013 64.8888 116.6C64.1154 116.187 63.5154 115.593 63.0888 114.82C62.6621 114.047 62.4488 113.133 62.4488 112.08C62.4488 111.293 62.5688 110.587 62.8088 109.96C63.0488 109.333 63.3954 108.8 63.8488 108.36C64.3154 107.907 64.8688 107.567 65.5088 107.34C66.1488 107.1 66.8621 106.98 67.6488 106.98C68.7021 106.98 69.6154 107.187 70.3888 107.6C71.1754 108.013 71.7821 108.6 72.2088 109.36C72.6488 110.12 72.8688 111.027 72.8688 112.08C72.8688 112.88 72.7421 113.593 72.4888 114.22C72.2488 114.847 71.9021 115.387 71.4488 115.84C70.9954 116.293 70.4421 116.64 69.7888 116.88C69.1488 117.107 68.4354 117.22 67.6488 117.22ZM67.6488 114.96C68.0888 114.96 68.4688 114.853 68.7888 114.64C69.1088 114.427 69.3621 114.113 69.5488 113.7C69.7354 113.273 69.8288 112.733 69.8288 112.08C69.8288 111.107 69.6288 110.393 69.2288 109.94C68.8288 109.473 68.3021 109.24 67.6488 109.24C67.2221 109.24 66.8421 109.34 66.5088 109.54C66.1888 109.74 65.9354 110.053 65.7488 110.48C65.5754 110.893 65.4888 111.427 65.4888 112.08C65.4888 113.053 65.6888 113.78 66.0888 114.26C66.4888 114.727 67.0088 114.96 67.6488 114.96ZM78.0261 117.18C77.5328 117.18 77.1528 117.047 76.8861 116.78C76.6328 116.513 76.5061 116.133 76.5061 115.64V108.54C76.5061 108.047 76.6328 107.673 76.8861 107.42C77.1528 107.153 77.5194 107.02 77.9861 107.02C78.4661 107.02 78.8328 107.153 79.0861 107.42C79.3394 107.673 79.4661 108.047 79.4661 108.54V109.68L79.2461 109.02C79.5528 108.367 80.0061 107.867 80.6061 107.52C81.2194 107.16 81.9128 106.98 82.6861 106.98C83.4728 106.98 84.1194 107.133 84.6261 107.44C85.1328 107.733 85.5128 108.187 85.7661 108.8C86.0194 109.4 86.1461 110.167 86.1461 111.1V115.64C86.1461 116.133 86.0128 116.513 85.7461 116.78C85.4928 117.047 85.1194 117.18 84.6261 117.18C84.1461 117.18 83.7728 117.047 83.5061 116.78C83.2528 116.513 83.1261 116.133 83.1261 115.64V111.24C83.1261 110.56 82.9994 110.073 82.7461 109.78C82.5061 109.473 82.1328 109.32 81.6261 109.32C80.9861 109.32 80.4728 109.52 80.0861 109.92C79.7128 110.32 79.5261 110.853 79.5261 111.52V115.64C79.5261 116.667 79.0261 117.18 78.0261 117.18ZM93.9606 117.22C93.374 117.22 92.7673 117.167 92.1406 117.06C91.5273 116.953 90.9673 116.773 90.4606 116.52C90.194 116.387 90.0006 116.22 89.8806 116.02C89.774 115.807 89.7273 115.593 89.7406 115.38C89.754 115.167 89.8206 114.973 89.9406 114.8C90.074 114.627 90.2406 114.513 90.4406 114.46C90.654 114.393 90.8873 114.413 91.1406 114.52C91.6873 114.747 92.1873 114.907 92.6406 115C93.094 115.093 93.5406 115.14 93.9806 115.14C94.554 115.14 94.9673 115.053 95.2206 114.88C95.4873 114.693 95.6206 114.453 95.6206 114.16C95.6206 113.893 95.534 113.693 95.3606 113.56C95.1873 113.427 94.934 113.333 94.6006 113.28L92.5006 112.9C91.674 112.753 91.034 112.453 90.5806 112C90.1406 111.533 89.9206 110.94 89.9206 110.22C89.9206 109.553 90.1073 108.98 90.4806 108.5C90.854 108.007 91.3673 107.633 92.0206 107.38C92.6873 107.113 93.4406 106.98 94.2806 106.98C94.8806 106.98 95.434 107.033 95.9406 107.14C96.4473 107.247 96.934 107.42 97.4006 107.66C97.6406 107.78 97.8073 107.94 97.9006 108.14C98.0073 108.34 98.0406 108.547 98.0006 108.76C97.974 108.973 97.894 109.167 97.7606 109.34C97.6273 109.513 97.454 109.627 97.2406 109.68C97.0406 109.733 96.8073 109.707 96.5406 109.6C96.114 109.4 95.7206 109.26 95.3606 109.18C95.0006 109.087 94.654 109.04 94.3206 109.04C93.7206 109.04 93.2873 109.14 93.0206 109.34C92.754 109.527 92.6206 109.767 92.6206 110.06C92.6206 110.287 92.694 110.48 92.8406 110.64C93.0006 110.787 93.2406 110.887 93.5606 110.94L95.6606 111.32C96.5273 111.467 97.1873 111.76 97.6406 112.2C98.094 112.627 98.3206 113.213 98.3206 113.96C98.3206 114.973 97.9206 115.773 97.1206 116.36C96.334 116.933 95.2806 117.22 93.9606 117.22ZM105.464 117.22C104.638 117.22 103.951 117.067 103.404 116.76C102.858 116.453 102.451 115.993 102.184 115.38C101.931 114.753 101.804 113.98 101.804 113.06V108.54C101.804 108.033 101.931 107.653 102.184 107.4C102.451 107.147 102.824 107.02 103.304 107.02C103.784 107.02 104.158 107.147 104.424 107.4C104.691 107.653 104.824 108.033 104.824 108.54V113.14C104.824 113.727 104.944 114.167 105.184 114.46C105.424 114.74 105.804 114.88 106.324 114.88C106.898 114.88 107.364 114.68 107.724 114.28C108.098 113.867 108.284 113.327 108.284 112.66V108.54C108.284 108.033 108.411 107.653 108.664 107.4C108.931 107.147 109.304 107.02 109.784 107.02C110.278 107.02 110.651 107.147 110.904 107.4C111.171 107.653 111.304 108.033 111.304 108.54V115.64C111.304 116.667 110.818 117.18 109.844 117.18C109.364 117.18 108.998 117.047 108.744 116.78C108.491 116.513 108.364 116.133 108.364 115.64V114.3L108.664 115.08C108.371 115.76 107.951 116.287 107.404 116.66C106.858 117.033 106.211 117.22 105.464 117.22ZM118.981 117.22C117.795 117.22 116.908 116.893 116.321 116.24C115.735 115.573 115.441 114.587 115.441 113.28V104.26C115.441 103.753 115.568 103.373 115.821 103.12C116.088 102.853 116.468 102.72 116.961 102.72C117.441 102.72 117.808 102.853 118.061 103.12C118.328 103.373 118.461 103.753 118.461 104.26V113.16C118.461 113.707 118.575 114.113 118.801 114.38C119.041 114.633 119.355 114.76 119.741 114.76C119.848 114.76 119.948 114.753 120.041 114.74C120.135 114.727 120.235 114.72 120.341 114.72C120.555 114.693 120.701 114.76 120.781 114.92C120.875 115.067 120.921 115.367 120.921 115.82C120.921 116.22 120.841 116.527 120.681 116.74C120.521 116.94 120.275 117.073 119.941 117.14C119.808 117.153 119.655 117.167 119.481 117.18C119.308 117.207 119.141 117.22 118.981 117.22ZM128.428 117.22C127.508 117.22 126.735 117.067 126.108 116.76C125.495 116.453 125.035 116.007 124.728 115.42C124.435 114.833 124.288 114.093 124.288 113.2V109.44H123.448C123.075 109.44 122.782 109.34 122.568 109.14C122.368 108.94 122.268 108.667 122.268 108.32C122.268 107.947 122.368 107.667 122.568 107.48C122.782 107.28 123.075 107.18 123.448 107.18H124.288V105.66C124.288 105.153 124.422 104.773 124.688 104.52C124.955 104.253 125.328 104.12 125.808 104.12C126.302 104.12 126.675 104.253 126.928 104.52C127.182 104.773 127.308 105.153 127.308 105.66V107.18H129.208C129.582 107.18 129.868 107.28 130.068 107.48C130.268 107.667 130.368 107.947 130.368 108.32C130.368 108.667 130.268 108.94 130.068 109.14C129.868 109.34 129.582 109.44 129.208 109.44H127.308V113.08C127.308 113.64 127.435 114.06 127.688 114.34C127.955 114.62 128.375 114.76 128.948 114.76C129.148 114.76 129.335 114.74 129.508 114.7C129.682 114.66 129.842 114.633 129.988 114.62C130.175 114.607 130.328 114.667 130.448 114.8C130.568 114.92 130.628 115.193 130.628 115.62C130.628 115.94 130.575 116.22 130.468 116.46C130.362 116.7 130.175 116.873 129.908 116.98C129.735 117.047 129.495 117.1 129.188 117.14C128.895 117.193 128.642 117.22 128.428 117.22ZM135.327 117.16C134.834 117.16 134.454 117.02 134.187 116.74C133.934 116.447 133.807 116.04 133.807 115.52V108.68C133.807 108.147 133.934 107.74 134.187 107.46C134.454 107.167 134.834 107.02 135.327 107.02C135.807 107.02 136.174 107.167 136.427 107.46C136.694 107.74 136.827 108.147 136.827 108.68V115.52C136.827 116.04 136.7 116.447 136.447 116.74C136.194 117.02 135.82 117.16 135.327 117.16ZM135.327 105.38C134.767 105.38 134.334 105.253 134.027 105C133.734 104.733 133.587 104.36 133.587 103.88C133.587 103.387 133.734 103.013 134.027 102.76C134.334 102.493 134.767 102.36 135.327 102.36C135.887 102.36 136.314 102.493 136.607 102.76C136.9 103.013 137.047 103.387 137.047 103.88C137.047 104.36 136.9 104.733 136.607 105C136.314 105.253 135.887 105.38 135.327 105.38ZM142.478 117.18C141.985 117.18 141.605 117.047 141.338 116.78C141.085 116.513 140.958 116.133 140.958 115.64V108.54C140.958 108.047 141.085 107.673 141.338 107.42C141.605 107.153 141.972 107.02 142.438 107.02C142.918 107.02 143.285 107.153 143.538 107.42C143.792 107.673 143.918 108.047 143.918 108.54V109.68L143.698 109.02C144.005 108.367 144.458 107.867 145.058 107.52C145.672 107.16 146.365 106.98 147.138 106.98C147.925 106.98 148.572 107.133 149.078 107.44C149.585 107.733 149.965 108.187 150.218 108.8C150.472 109.4 150.598 110.167 150.598 111.1V115.64C150.598 116.133 150.465 116.513 150.198 116.78C149.945 117.047 149.572 117.18 149.078 117.18C148.598 117.18 148.225 117.047 147.958 116.78C147.705 116.513 147.578 116.133 147.578 115.64V111.24C147.578 110.56 147.452 110.073 147.198 109.78C146.958 109.473 146.585 109.32 146.078 109.32C145.438 109.32 144.925 109.52 144.538 109.92C144.165 110.32 143.978 110.853 143.978 111.52V115.64C143.978 116.667 143.478 117.18 142.478 117.18ZM159.373 120.82C158.653 120.82 157.96 120.76 157.293 120.64C156.64 120.52 156.06 120.34 155.553 120.1C155.246 119.967 155.026 119.793 154.893 119.58C154.773 119.367 154.72 119.14 154.733 118.9C154.76 118.66 154.84 118.447 154.973 118.26C155.12 118.073 155.3 117.94 155.513 117.86C155.726 117.793 155.953 117.813 156.193 117.92C156.78 118.187 157.32 118.36 157.813 118.44C158.32 118.52 158.753 118.56 159.113 118.56C159.966 118.56 160.606 118.367 161.033 117.98C161.46 117.593 161.673 117 161.673 116.2V114.68H161.853C161.653 115.293 161.24 115.793 160.613 116.18C159.986 116.567 159.293 116.76 158.533 116.76C157.653 116.76 156.886 116.56 156.233 116.16C155.58 115.747 155.073 115.173 154.713 114.44C154.353 113.693 154.173 112.833 154.173 111.86C154.173 111.127 154.273 110.46 154.473 109.86C154.686 109.26 154.98 108.747 155.353 108.32C155.74 107.893 156.2 107.567 156.733 107.34C157.28 107.1 157.88 106.98 158.533 106.98C159.32 106.98 160.013 107.173 160.613 107.56C161.226 107.933 161.633 108.427 161.833 109.04L161.633 109.68V108.54C161.633 108.047 161.76 107.673 162.013 107.42C162.28 107.153 162.653 107.02 163.133 107.02C163.613 107.02 163.98 107.153 164.233 107.42C164.486 107.673 164.613 108.047 164.613 108.54V115.86C164.613 117.5 164.16 118.733 163.253 119.56C162.36 120.4 161.066 120.82 159.373 120.82ZM159.433 114.5C159.886 114.5 160.273 114.393 160.593 114.18C160.926 113.967 161.186 113.667 161.373 113.28C161.56 112.88 161.653 112.407 161.653 111.86C161.653 111.033 161.446 110.393 161.033 109.94C160.633 109.473 160.1 109.24 159.433 109.24C158.98 109.24 158.586 109.347 158.253 109.56C157.92 109.76 157.66 110.06 157.473 110.46C157.3 110.847 157.213 111.313 157.213 111.86C157.213 112.687 157.413 113.333 157.813 113.8C158.213 114.267 158.753 114.5 159.433 114.5Z" fill="black"/>
</svg>
