<svg width="20" height="20" viewBox="0 0 20 20" fill="none" xmlns="http://www.w3.org/2000/svg">
<path d="M11.1496 10.5345L11.5292 10.1571L10.6478 9.27067L10.2683 9.64809L11.1496 10.5345ZM12.8039 9.999L14.396 10.8645L14.993 9.76634L13.4009 8.90084L12.8039 9.999ZM14.7025 12.5847L13.5186 13.7618L14.4 14.6482L15.5838 13.4711L14.7025 12.5847ZM12.7973 14.1408C11.589 14.2533 8.46304 14.153 5.07852 10.7877L4.19716 11.6741C7.89054 15.3465 11.4058 15.5258 12.9133 15.3853L12.7973 14.1408ZM5.07852 10.7877C1.85237 7.57984 1.31797 4.88179 1.25144 3.71129L0.00345729 3.78222C0.087174 5.25541 0.748899 8.24542 4.19716 11.6741L5.07852 10.7877ZM6.22462 5.63743L6.46362 5.39977L5.58229 4.51338L5.34328 4.75103L6.22462 5.63743ZM6.65387 2.37043L5.60308 0.966761L4.60242 1.71588L5.65321 3.11955L6.65387 2.37043ZM2.0689 0.661244L0.760899 1.96182L1.64227 2.84822L2.95027 1.54764L2.0689 0.661244ZM5.78396 5.19423C5.34328 4.75103 5.34268 4.75162 5.34208 4.75222C5.34188 4.75242 5.34128 4.75303 5.34087 4.75344C5.34006 4.75426 5.33922 4.75509 5.33838 4.75595C5.33669 4.75768 5.33494 4.75947 5.33314 4.76134C5.32953 4.76508 5.32572 4.76913 5.3217 4.77349C5.31366 4.78222 5.30483 4.7922 5.29538 4.80348C5.27649 4.82602 5.25508 4.85378 5.23258 4.88699C5.18747 4.95356 5.13832 5.04159 5.09661 5.15229C5.01151 5.37816 4.96588 5.67592 5.02308 6.04463C5.13495 6.76569 5.63154 7.71817 6.90362 8.983L7.78496 8.09659C6.59454 6.91291 6.31096 6.19258 6.25829 5.85299C6.23321 5.69139 6.25921 5.61184 6.26637 5.59301C6.27071 5.58136 6.27279 5.58017 6.26746 5.58813C6.26479 5.59202 6.26037 5.59811 6.25346 5.60632C6.25004 5.61043 6.24596 5.61508 6.24121 5.62026C6.23879 5.62285 6.23629 5.62558 6.23346 5.62844C6.23212 5.62987 6.23071 5.63133 6.22921 5.63283C6.22846 5.63358 6.22771 5.63434 6.22696 5.6351C6.22662 5.63549 6.22604 5.63607 6.22579 5.63626C6.22521 5.63684 6.22462 5.63743 5.78396 5.19423ZM6.90362 8.983C8.17612 10.2483 9.13304 10.7407 9.85529 10.8515C10.2244 10.9081 10.522 10.8629 10.7477 10.7788C10.8584 10.7376 10.9465 10.689 11.0132 10.6443C11.0465 10.622 11.0744 10.6008 11.097 10.582C11.1083 10.5727 11.1183 10.5639 11.127 10.5559C11.1315 10.5519 11.1355 10.5482 11.1393 10.5446C11.1412 10.5428 11.143 10.541 11.1447 10.5393C11.1455 10.5385 11.1464 10.5377 11.1472 10.5368C11.1476 10.5364 11.1483 10.5358 11.1485 10.5357C11.149 10.5351 11.1496 10.5345 10.709 10.0913C10.2683 9.64809 10.2689 9.6475 10.2695 9.64692C10.2696 9.64675 10.2702 9.64617 10.2706 9.64575C10.2714 9.645 10.2721 9.64425 10.2729 9.6435C10.2745 9.64209 10.2759 9.64067 10.2773 9.63925C10.2802 9.6365 10.283 9.634 10.2855 9.63159C10.2907 9.62692 10.2954 9.62284 10.2995 9.6195C10.3077 9.61267 10.3138 9.60833 10.3175 9.60575C10.3253 9.60058 10.3237 9.60292 10.3114 9.6075C10.291 9.61508 10.2092 9.64117 10.0449 9.61592C9.70046 9.56317 8.97504 9.27983 7.78496 8.09659L6.90362 8.983ZM5.60308 0.966761C4.75366 -0.167897 3.08334 -0.347439 2.0689 0.661244L2.95027 1.54764C3.39333 1.10709 4.18023 1.15193 4.60242 1.71588L5.60308 0.966761ZM1.25144 3.71129C1.23505 3.42287 1.36733 3.12159 1.64227 2.84822L0.760899 1.96182C0.313132 2.40704 -0.0388844 3.03729 0.00345729 3.78222L1.25144 3.71129ZM13.5186 13.7618C13.2896 13.9895 13.0441 14.1178 12.7973 14.1408L12.9133 15.3853C13.5255 15.3283 14.027 15.019 14.4 14.6482L13.5186 13.7618ZM6.46362 5.39977C7.28404 4.584 7.34504 3.29367 6.65387 2.37043L5.65321 3.11955C5.98946 3.5687 5.93946 4.15824 5.58229 4.51338L6.46362 5.39977ZM14.396 10.8645C15.0775 11.235 15.1836 12.1062 14.7025 12.5847L15.5838 13.4711C16.7007 12.3605 16.3563 10.5074 14.993 9.76634L14.396 10.8645ZM11.5292 10.1571C11.8492 9.83892 12.3643 9.76009 12.8039 9.999L13.4009 8.90084C12.4979 8.40992 11.3772 8.5455 10.6478 9.27067L11.5292 10.1571Z" fill="#283548"/>
</svg>
